<svg xmlns="http://www.w3.org/2000/svg" viewBox="0 0 120 120" role="img" aria-label="CPGS Tours and Travels logo">
  <defs>
    <linearGradient id="globe" x1="0" y1="0" x2="1" y2="1">
      <stop offset="0" stop-color="#1d9bd8"/>
      <stop offset="0.55" stop-color="#149a6c"/>
      <stop offset="1" stop-color="#0a6b4f"/>
    </linearGradient>
    <linearGradient id="swoosh" x1="0" y1="0" x2="1" y2="0">
      <stop offset="0" stop-color="#f5a623"/>
      <stop offset="1" stop-color="#e5484d"/>
    </linearGradient>
  </defs>
  <!-- globe -->
  <circle cx="60" cy="64" r="40" fill="url(#globe)"/>
  <g stroke="#ffffff" stroke-width="2.4" fill="none" opacity="0.85">
    <ellipse cx="60" cy="64" rx="40" ry="16"/>
    <ellipse cx="60" cy="64" rx="16" ry="40"/>
    <line x1="20" y1="64" x2="100" y2="64"/>
    <path d="M27 42 a40 40 0 0 1 66 0" />
    <path d="M27 86 a40 40 0 0 0 66 0" />
  </g>
  <circle cx="60" cy="64" r="40" fill="none" stroke="#0a4539" stroke-width="3"/>
  <!-- contrail swoosh -->
  <path d="M14 46 C34 18 86 12 108 30" fill="none" stroke="url(#swoosh)" stroke-width="5" stroke-linecap="round"/>
  <!-- plane -->
  <g transform="translate(84 14) rotate(18)">
    <path d="M0 10 L26 4 L10 12 L14 20 L8 16 L2 18 Z" fill="#0a4539"/>
    <path d="M0 10 L26 4 L10 12 Z" fill="#149a6c"/>
  </g>
</svg>
